<svg xmlns="http://www.w3.org/2000/svg" fill-rule="evenodd" stroke-miterlimit="1.5" viewBox="0 0 600 400" clip-rule="evenodd" stroke-linecap="round" stroke-linejoin="round"><g id="Low-res-Poly-The-Bear"><path fill="none" stroke="#fff" stroke-width="1.7" d="M385 218l-38-10-61 28-5-4-8 8-6-4-3 10-5 17.7-17.7 13.3 12 8 14.5-6.5-7.7 13.3 54.8-15L309 302l-14 18-20.4 8.2 29.4 5 20-16.2 24-23 20 21-20 6 8.4 5.3L380 323l7-15-7-19 23 1 8.6 25-23 8 9 6 23-1 27.5-29.2 29 18.2-20 4 8 6.6 16 1.4 11-7v-12l-7-36.3-24-42.7-41-18-35 5z" transform="matrix(2.33327 0 0 2.29406 -555.38 -475.062)"/><g id="Low-res-Polyfills"><path fill="none" stroke="#fff" stroke-width="18.3" d="M836 1182.3l117-215.8-210.8 61 94 154.8z" transform="matrix(.21855 0 0 .21855 -113.272 -94.586)"/><path fill="none" stroke="#fff" stroke-width="18.3" d="M1026 1310.6l-93.8-155-189 139.3 283 15.6z" transform="matrix(.21855 0 0 .21855 -154.796 -122.624)"/><path fill="none" stroke="#fff" stroke-width="18.3" d="M890 1272.4l211-61-157.6-125.2-53.4 186.2z" transform="matrix(.21855 0 0 .21855 -145.58 -148.12)"/><path fill="none" stroke="#fff" stroke-width="18.3" d="M827.6 736.3l-32 105 96-63-64-42zM977 694.3l-85.3 84 138.8-42-53.4-42zM553.3 1166.6l129.4 84 153.4-68.3-282.7-15.7zM754 1321.8l584.5-156.2-502.4 16.7-82 139.5zM1681.7 442.4l-651.2 294 369 105 282.2-399z" transform="matrix(.21855 0 0 .21855 -113.272 -94.586)"/><path fill="none" stroke="#fff" stroke-width="18.3" d="M1932 435l-405.6-105 126 436.3L1932.2 435z" transform="matrix(.21855 0 0 .21855 -79.328 -70.046)"/><path fill="none" stroke="#fff" stroke-width="18.3" d="M1681.7 442.4l-282.3 399 408.4 37.2-126-436.2zM891.7 778.3l-96 63L953 966.5l-61.3-188.2z" transform="matrix(.21855 0 0 .21855 -113.272 -94.586)"/><path fill="none" stroke="#fff" stroke-width="18.3" d="M892 741.8l-138.7 42L814.7 972 892 741.8z" transform="matrix(.21855 0 0 .21855 -83.035 -95.783)"/><path fill="none" stroke="#fff" stroke-width="18.3" d="M1135 845L766 740l-77.4 230L1135 845z" transform="matrix(.21855 0 0 .21855 -55.477 -95.374)"/><path fill="none" stroke="#fff" stroke-width="18.3" d="M531 935.7l385.3 199-502.4 16.8 117-215.8z" transform="matrix(.21855 0 0 .21855 -21.004 -87.855)"/><path fill="none" stroke="#fff" stroke-width="18.3" d="M1399.4 841.3L953 966.5l385.5 199 61-324.2z" transform="matrix(.21855 0 0 .21855 -113.272 -94.586)"/><path fill="none" stroke="#fff" stroke-width="18.3" d="M1807.8 878.6l-408.4-37.3-61 324.3 469.4-287zM1338.5 1165.6l354 179.5 115.3-466.4-469.3 287z" transform="matrix(.21855 0 0 .21855 -113.272 -94.586)"/><path fill="none" stroke="#fff" stroke-width="18.3" d="M1338.5 1165.6L1276 1429l416.4-84-354-179.4zM1436.2 1586.6L1276 1429l416.4-84-256.2 241.6z" transform="matrix(.21855 0 0 .21855 -113.272 -94.586)"/><path fill="none" stroke="#fff" stroke-width="18.3" d="M1436.2 1586.6L1276 1429l-149.5 189 309.7-31.4zM1222.6 1755.7l-96-137.6 309.6-31.4-213.6 169z" transform="matrix(.21855 0 0 .21855 -113.272 -94.586)"/><path fill="none" stroke="#fff" stroke-width="18.3" d="M909 1703.7l313.6 52-96-137.6-217.7 85.7zM2108.8 1492l-74.8 157.5-127-84 201.8-73.4z" transform="matrix(.21855 0 0 .21855 -113.272 -94.586)"/><path fill="none" stroke="#fff" stroke-width="18.3" d="M1782.2 1684.3l125-118.7-214.8 64 89.8 54.7zM1807.8 878.6l525.4-76.6-245.8-254.6-279.6 331.2z" transform="matrix(.21855 0 0 .21855 -113.272 -94.586)"/><path fill="none" stroke="#fff" stroke-width="18.3" d="M2108.8 1492l-74.8-199.3-127 273L2109 1492z" transform="matrix(.21855 0 0 .21855 -113.272 -94.586)"/><path fill="none" stroke="#fff" stroke-width="18.3" d="M2034 1292.7l-226.2-414-115.4 466.4 341.6-52.3z" transform="matrix(.21855 0 0 .21855 -113.272 -94.586)"/><path fill="none" stroke="#fff" stroke-width="18.3" d="M2127 920.6l-525.4 76.7 226.3 414 299-490.7z" transform="matrix(.21855 0 0 .21855 -68.213 -120.518)"/><path fill="none" stroke="#fff" stroke-width="18.3" d="M2034 1292.7l-341.6 52.4 214.7 220.6 127-273z" transform="matrix(.21855 0 0 .21855 -113.272 -94.586)"/><path fill="none" stroke="#fff" stroke-width="18.3" d="M1907 1565.6l127 84-251.8 34.7 125-118.7zM2333.2 802l-53.6 501.2 392.3-302L2333 802z" transform="matrix(.21855 0 0 .21855 -113.272 -94.586)"/><path fill="none" stroke="#fff" stroke-width="18.3" d="M2279.6 1303.2l-245.6-10.5L2333.2 802l-53.6 501.2zM2087.4 547.4L2461 495l-127.8 307-245.8-254.6zM2761.2 1395.8l-390.3 169.8-91.4-262.4 481.6 92.6z" transform="matrix(.21855 0 0 .21855 -113.272 -94.586)"/><path fill="none" stroke="#fff" stroke-width="18.3" d="M2005 1487.4l-149.8 147 245.6-10.6-96-136.4z" transform="matrix(.21855 0 0 .21855 -33.288 -77.494)"/><path fill="none" stroke="#fff" stroke-width="18.3" d="M2221.2 1712.5l149.7-147-246 84 96.2 63zM2466.8 1702l294.3-306.2-390 169.8 95.8 136.4z" transform="matrix(.21855 0 0 .21855 -113.272 -94.586)"/><path fill="none" stroke="#fff" stroke-width="18.3" d="M2279.6 1303.2l392.3-302 89.2 394.6-481.6-92.6zM2898.8 683.8L2333.2 802l128-307 437.6 188.8z" transform="matrix(.21855 0 0 .21855 -113.272 -94.586)"/><path fill="none" stroke="#fff" stroke-width="18.3" d="M2333.2 802l338.7 199.2 226.8-317.4L2333.2 802zM3155.2 1132.2l-394 263.6-89.3-394.6 483.2 131z" transform="matrix(.21855 0 0 .21855 -113.272 -94.586)"/><path fill="none" stroke="#fff" stroke-width="18.3" d="M2761.2 1395.8l394-263.6-85.6 454.4-308.4-190.8zM3155.2 1132.2l74.6 381-160.2 73.4 85.6-454.4z" transform="matrix(.21855 0 0 .21855 -113.272 -94.586)"/><path fill="none" stroke="#fff" stroke-width="18.3" d="M3229.8 1639l-160.2-52.4 160.2-73.5v126zM3069.6 1586.6l160.2 52.5-117.5 73.5-42.7-126z" transform="matrix(.21855 0 0 .21855 -113.272 -94.586)"/><path fill="none" stroke="#fff" stroke-width="18.3" d="M3112.3 1712.5l-170.2-14.2 127.6-111.7 42.7 126z" transform="matrix(.21855 0 0 .21855 -113.272 -94.586)"/><path fill="none" stroke="#fff" stroke-width="18.3" d="M3069.6 1586.7L2942 1698.3l-86.3-68.8 214-42.8zM2672 1001.2l483.2 131-256.4-448.4-227 317.4z" transform="matrix(.21855 0 0 .21855 -113.272 -94.586)"/></g></g><g id="Techramento--Curves-" fill="#fff" fill-rule="nonzero"><path d="M37.4 353c.5.5.8 1.2.8 2 0 1-.3 1.6-.8 2-.6.6-1.3 1-2 1h-13V396c0 1-.4 1.7-1 2.3-.6.6-1.4 1-2.3 1-.8 0-1.5-.4-2-1-.7-.6-1-1.4-1-2.3V358H3c-1 0-1.6-.4-2.2-1-.5-.4-.8-1-.8-2 0-.8.3-1.5.8-2 .6-.6 1.3-1 2-1h32.5c.8 0 1.5.4 2 1zM55.8 398.5c-.6-.6-1-1.4-1-2.3v-41c0-1 .4-1.6 1-2.2.6-.6 1.3-1 2.2-1h27.4c1 0 1.6.4 2.2 1 .6.5 1 1.2 1 2 0 1-.4 1.6-1 2-.6.7-1.3 1-2.2 1H61.2v14.6h17.3c1 0 1.6.3 2.2.8.6.6 1 1.3 1 2 0 1-.4 1.7-1 2.2-.6.6-1.3.8-2.2.8H61.2v15.2h24.2c1 0 1.6.2 2.2.8.6.5 1 1.2 1 2 0 1-.4 1.6-1 2.2-.6.5-1.3.8-2.2.8H58c-1 0-1.6-.3-2.2-1zM116.3 396.8c-3.6-2-6.4-5-8.5-8.8-2-3.7-3-7.8-3-12.3 0-4.4 1-8.5 3-12.2 2-3.7 5-6.6 8.5-8.8 3.5-2 7.5-3.2 11.8-3.2 3.2 0 5.8.4 8 1.2 2.3.8 4.6 2.2 7 4l1 1v1.5c0 .8-.2 1.5-.8 2-.6.5-1.2.8-2 .8s-1.5-.3-2-.8c-1.8-1.4-3.4-2.4-5-3-1.6-.7-3.6-1-6-1-3.2 0-6 .8-8.8 2.5-2.6 1.6-4.7 4-6.3 6.7-1.4 3-2.2 6-2.2 9.3 0 3.4.8 6.5 2.3 9.3 1.7 3 3.8 5 6.4 6.8 2.7 1.6 5.6 2.4 8.7 2.4 4 0 7.7-1.3 11.3-4 .6-.4 1.3-.7 2-.7s1.4.3 2 .8c.4.6.6 1.3.6 2.2 0 .8-.4 1.6-1 2.2-4.4 3.5-9.4 5.3-15 5.3-4.2 0-8.2-1-11.7-3.2zM164.6 398.5c-.6-.6-1-1.4-1-2.3v-41c0-1 .4-1.6 1-2.2.6-.6 1.3-1 2.2-1 1 0 1.7.4 2.3 1 .7.6 1 1.3 1 2.3v17.3h28v-17.3c0-1 .3-1.7 1-2.3.6-.6 1.3-1 2.2-1 1 0 1.6.4 2.2 1 .6.6 1 1.3 1 2.3v41c0 1-.4 1.6-1 2.2-.6.6-1.3 1-2.2 1-1 0-1.6-.4-2.3-1-.7-.6-1-1.4-1-2.3v-18h-28v18c0 1-.3 1.7-1 2.3-.5.6-1.3 1-2.2 1-1 0-1.6-.4-2.2-1zM257.4 396.5c0 1-.3 1.5-.8 2-.6.6-1.3 1-2.3 1-1 0-2-.6-2.7-1.6L241.2 381h-8.8v15c0 1-.3 1.7-1 2.3-.5.6-1.3 1-2.2 1-1 0-1.6-.4-2.2-1-.6-.6-1-1.4-1-2.3v-41c0-1 .4-1.6 1-2.2.6-.6 1.3-1 2.2-1h11c3 0 5.6.7 8 2 2.3 1.2 4 3 5.4 5.3 1.4 2.2 2 4.8 2 7.7 0 3-.7 5.4-2.2 7.6-1.4 2.3-3.4 4-6 5l9.4 15c.4.6.6 1.3.6 2zm-17.3-21c3 0 5-1 7-2.5 1.7-1.5 2.6-3.5 2.6-6 0-2.7-1-4.8-2.7-6.5-2-1.7-4-2.6-7-2.6h-7.6v17.4h7.7zM309.7 396.3c0 1-.3 1.6-1 2.2-.5.6-1.3 1-2.2 1-.6 0-1-.3-1.7-.6-.5-.5-1-1-1.2-1.5l-3.4-8.5h-21.7l-3.4 8.5c-.2.6-.6 1-1.2 1.4-.5.2-1 .4-1.7.4s-1.5-.3-2-1c-.7-.6-1-1.3-1-2.2 0-.4.2-.8.4-1.3l17-40.8c.6-1.4 1.6-2 3-2s2.4.6 3 2l17 40.8.3 1.3zm-29-12.5H298l-8.5-21.6-9 21.6zM372.7 353c.6.6 1 1.4 1 2.3v41c0 .8-.4 1.6-1 2.2-.6.6-1.4 1-2.2 1-1 0-1.7-.4-2.3-1-.6-.6-1-1.4-1-2.3v-30L352.8 396c-.7 1-1.6 1.6-2.8 1.6-1.4 0-2.4-.6-3-2l-14.4-29v29.6c0 1-.3 1.7-1 2.3-.5.6-1.3 1-2.2 1-1 0-1.6-.4-2.2-1-.6-.6-1-1.4-1-2.3v-41c0-.8.4-1.6 1-2.2.6-.6 1.3-1 2.2-1 1.2 0 2.2.7 2.8 1.8l18 36 17.5-36c.6-1 1.6-1.7 2.8-1.7 1 0 1.6.4 2.2 1zM396.3 398.5c-.6-.6-1-1.4-1-2.3v-41c0-1 .4-1.6 1-2.2.6-.6 1.4-1 2.3-1H426c1 0 1.6.4 2.2 1 .5.5.8 1.2.8 2 0 1-.3 1.6-.8 2-.6.7-1.3 1-2.3 1h-24.3v14.6H419c1 0 1.7.3 2.3.8.6.6 1 1.3 1 2 0 1-.4 1.7-1 2.2-.6.6-1.3.8-2.2.8h-17.3v15.2H426c1 0 1.6.2 2.2.8.5.5.8 1.2.8 2 0 1-.3 1.6-.8 2.2-.6.5-1.3.8-2.3.8h-27.4c-1 0-1.7-.3-2.3-1zM448.4 398.5c-.6-.6-1-1.3-1-2.3v-41c0-1 .4-1.6 1-2.2.5-.6 1.3-1 2.2-1 .4 0 1 .2 1.3.4.3.3.7.5 1 1l26.4 35v-33c0-1 .3-1.8 1-2.4.5-.6 1.2-1 2-1 1 0 1.8.4 2.3 1 .6.6 1 1.3 1 2.3v41c0 1-.4 1.6-1 2.2-.5.6-1.3 1-2.2 1-.4 0-1-.2-1.3-.4-.5 0-.8-.3-1-.7l-26.5-35v33c0 .8-.3 1.6-1 2.2-.4.6-1.2 1-2 1-1 0-1.8-.4-2.3-1zM539.7 353c.5.5.8 1.2.8 2 0 1-.3 1.6-.8 2-.6.6-1.3 1-2 1h-13V396c0 1-.5 1.7-1 2.3-.7.6-1.4 1-2.3 1-1 0-1.6-.4-2.2-1-.6-.6-1-1.4-1-2.3V358h-13c-1 0-1.6-.4-2-1-.7-.4-1-1-1-2 0-.8.3-1.5 1-2 .4-.6 1-1 2-1h32.4c.8 0 1.5.4 2 1zM563.5 397c-3.7-2-6.5-5-8.6-8.7-2-3.7-3-8-3-12.6 0-4.7 1-8.8 3-12.5 2-3.7 4.8-6.6 8.5-8.6 3.6-2 7.8-3 12.5-3 4.6 0 8.7 1 12.4 3 3.6 2 6.5 5 8.5 8.6 2 3.7 3 7.8 3 12.5s-1 9-3 12.6c-2 3.7-5 6.6-8.6 8.6-3.6 2-7.8 3-12.4 3-4.7 0-9-1-12.5-3zm21.7-5c2.8-1.8 5-4 6.4-6.8 1.6-3 2.3-6 2.3-9.5 0-3.4-.8-6.6-2.4-9.4-1.5-2.8-3.6-5-6.4-6.7-2.7-1.6-5.8-2.4-9.2-2.4-3.5 0-6.6.8-9.3 2.4-2.8 1.6-5 4-6.4 6.7-1.6 2.8-2.3 6-2.3 9.4 0 3.5.7 6.6 2.3 9.5 1.5 2.8 3.6 5 6.4 6.7 2.7 1.5 5.8 2.3 9.3 2.3 3.4 0 6.5-.8 9.2-2.4z"/></g></svg>
